<?xml version="1.0" encoding="UTF-8" standalone="no"?>
<!-- Generator: Gravit.io -->
<svg xmlns="http://www.w3.org/2000/svg" xmlns:xlink="http://www.w3.org/1999/xlink" style="isolation:isolate" viewBox="0 0 512 512" width="512pt" height="512pt">
  <defs>
    <clipPath id="_clipPath_tjptfIOdum3eQpKXx6IV970CkZpk4dG0">
      <rect width="512" height="512"/>
    </clipPath>
  </defs>
  <g clip-path="url(#_clipPath_tjptfIOdum3eQpKXx6IV970CkZpk4dG0)">
    <path d=" M 83.902 56.845 C 83.662 57.085 82.355 59.273 80.968 61.7 C 79.554 64.127 78.061 66.821 77.607 67.702 C 77.18 68.582 76.22 70.743 75.473 72.503 C 74.726 74.264 73.713 76.958 73.206 78.505 C 72.672 80.052 71.899 82.746 71.445 84.506 C 71.019 86.267 70.405 88.961 70.112 90.508 C 69.818 92.055 69.445 94.989 69.258 97.043 C 69.071 99.097 68.938 104.192 68.938 108.38 C 68.965 112.568 69.098 117.796 69.258 119.983 C 69.445 122.197 69.872 125.718 70.245 127.852 C 70.592 129.986 71.339 133.587 71.846 135.854 C 72.379 138.122 73.286 141.669 73.873 143.723 C 74.433 145.777 75.527 149.272 76.274 151.459 C 76.994 153.673 78.434 157.487 79.421 159.995 C 80.435 162.502 81.768 165.73 82.435 167.197 C 83.075 168.664 84.729 172.078 86.09 174.799 C 87.45 177.52 89.451 181.334 90.518 183.281 C 91.611 185.202 92.491 187.069 92.491 187.389 C 92.491 187.736 91.905 189.736 91.184 191.87 C 90.464 194.004 89.451 196.885 88.89 198.272 C 88.357 199.659 87.023 202.62 85.983 204.807 C 84.916 206.995 83.342 209.956 82.515 211.343 C 81.662 212.73 80.141 214.944 79.154 216.277 C 78.167 217.611 76.06 219.985 74.46 221.586 C 72.859 223.186 70.645 225.16 69.552 225.987 C 68.458 226.814 66.351 228.094 64.884 228.868 C 63.417 229.614 61.123 230.575 59.815 231.028 C 58.482 231.482 56.455 232.042 55.281 232.282 C 54.107 232.522 51.813 232.815 50.213 232.922 C 48.586 233.055 45.785 233.029 43.944 232.895 C 42.104 232.789 39.463 232.442 38.076 232.149 C 36.689 231.855 34.208 231.242 32.608 230.788 C 30.981 230.335 28.473 229.428 27.006 228.788 C 25.539 228.147 22.045 226.414 19.271 224.92 C 16.47 223.453 13.856 222.226 13.429 222.199 L 12.629 222.146 C 10.681 232.895 9.908 237.457 9.668 239.217 C 9.428 240.978 9.161 245.112 9.081 248.42 C 9.001 251.861 9.054 256.529 9.241 259.356 C 9.428 262.077 9.748 265.438 9.961 266.825 C 10.175 268.212 10.788 271.093 11.295 273.227 C 11.828 275.361 12.922 279.122 13.722 281.629 C 14.523 284.137 15.776 287.631 16.496 289.445 C 17.217 291.232 18.497 294.166 19.351 295.953 C 20.204 297.767 21.831 300.888 22.952 302.915 C 24.072 304.916 24.926 306.65 24.846 306.756 C 24.765 306.89 24.205 306.676 23.592 306.33 C 22.978 305.983 19.591 304.142 16.07 302.222 C 12.549 300.301 7.507 297.581 4.866 296.14 C 2.226 294.7 0.038 293.553 0.012 293.579 C -0.042 293.606 0.092 294.113 0.305 294.7 C 0.492 295.287 3.933 302.302 7.934 310.304 C 11.935 318.306 16.043 326.415 17.083 328.309 C 18.097 330.23 19.831 333.324 20.951 335.245 C 22.045 337.165 24.552 341.113 26.473 344.047 C 28.42 346.981 31.461 351.303 33.221 353.65 C 34.982 355.997 37.516 359.251 38.876 360.852 C 40.21 362.452 42.957 365.573 44.958 367.761 C 46.958 369.948 50.293 373.362 52.347 375.336 C 54.401 377.31 57.815 380.431 59.949 382.271 C 62.083 384.085 65.737 387.046 68.085 388.807 C 70.432 390.567 74.38 393.368 76.887 395.022 C 79.394 396.649 82.915 398.863 84.756 399.93 C 86.596 400.997 90.011 402.864 92.358 404.091 C 94.705 405.291 98.066 406.945 99.827 407.745 C 101.587 408.519 105.615 410.173 108.763 411.373 C 111.91 412.6 114.684 413.774 114.898 413.96 C 115.245 414.28 115.111 414.334 113.884 414.334 C 113.137 414.334 110.737 414.521 108.549 414.734 C 106.389 414.974 100.307 415.694 95.026 416.361 C 89.744 417.028 85.076 417.641 84.676 417.748 C 84.222 417.855 83.956 418.095 84.009 418.308 C 84.062 418.548 85.396 419.109 87.423 419.722 C 89.264 420.309 95.932 422.443 102.228 424.497 C 108.523 426.551 117.112 429.378 121.3 430.738 C 125.488 432.099 130.582 433.646 132.636 434.179 C 134.69 434.686 138.051 435.433 140.105 435.807 C 142.159 436.18 145.627 436.74 147.841 437.06 C 151.335 437.54 153.469 437.647 164.512 437.727 C 175.929 437.834 177.769 437.78 183.184 437.274 C 186.492 436.98 190.333 436.527 191.72 436.313 C 193.107 436.1 194.814 435.887 195.508 435.86 C 196.681 435.807 196.788 435.86 197.882 437.14 C 198.522 437.887 199.935 439.408 201.056 440.555 C 202.149 441.728 204.017 443.462 205.19 444.476 C 206.364 445.463 208.338 446.956 209.592 447.81 C 210.845 448.637 213.273 450.024 214.98 450.904 C 216.714 451.758 218.367 452.478 218.661 452.478 C 218.954 452.478 219.781 451.971 220.501 451.358 C 221.222 450.718 222.929 449.224 224.316 447.997 C 225.676 446.796 226.876 445.809 226.983 445.809 C 227.117 445.809 228.477 446.716 230.051 447.837 C 231.651 448.957 234.132 450.451 235.599 451.144 C 237.066 451.865 239.653 452.851 241.334 453.385 C 243.014 453.918 245.842 454.585 247.602 454.879 C 249.363 455.199 252.59 455.519 254.804 455.599 C 257.178 455.679 260.113 455.626 262.006 455.439 C 263.767 455.252 266.354 454.879 267.741 454.585 C 269.128 454.265 271.529 453.598 273.076 453.092 C 274.623 452.585 276.891 451.678 278.144 451.118 C 279.398 450.531 281.879 449.064 283.666 447.863 L 286.947 445.676 C 289.721 448.157 291.402 449.677 292.468 450.691 C 293.669 451.784 294.656 452.478 295.003 452.478 C 295.349 452.478 296.95 451.811 298.55 451.011 C 300.151 450.184 302.871 448.61 304.552 447.49 C 306.953 445.889 308.633 444.422 312.287 440.821 C 316.555 436.58 317.035 436.18 317.889 436.207 C 318.396 436.207 320.797 436.447 323.224 436.714 C 325.651 437.007 329.359 437.38 331.493 437.54 C 334.187 437.78 339.095 437.834 347.764 437.727 C 354.593 437.647 361.181 437.46 362.435 437.3 C 363.689 437.14 366.863 436.634 369.504 436.207 C 372.145 435.753 376.226 434.926 378.573 434.34 C 380.92 433.779 392.257 430.232 403.78 426.471 C 415.304 422.71 425.146 419.509 425.653 419.375 C 426.16 419.215 426.933 418.948 427.334 418.788 C 427.734 418.602 428.08 418.308 428.054 418.148 C 428.054 417.962 427.974 417.748 427.84 417.695 C 427.734 417.615 423.332 417.081 418.051 416.494 C 412.769 415.881 407.061 415.214 405.381 415.001 C 403.7 414.787 401.086 414.494 399.592 414.387 C 397.405 414.254 396.925 414.12 397.192 413.88 C 397.352 413.694 399.139 412.947 401.113 412.2 C 403.087 411.453 405.861 410.386 407.248 409.799 C 408.635 409.239 411.649 407.905 413.916 406.865 C 416.184 405.825 419.838 403.984 422.052 402.811 C 424.239 401.61 427.547 399.743 429.388 398.649 C 431.228 397.556 434.589 395.395 436.856 393.848 C 439.124 392.301 442.191 390.14 443.658 389.02 C 445.125 387.9 447.713 385.872 449.393 384.485 C 451.074 383.098 453.608 380.938 454.995 379.684 C 456.382 378.43 458.943 376.003 460.676 374.322 C 462.437 372.642 465.398 369.574 467.265 367.52 C 469.132 365.467 471.933 362.292 473.453 360.452 C 474.974 358.611 477.428 355.49 478.922 353.516 C 480.389 351.543 483.029 347.808 484.737 345.247 C 486.47 342.687 488.978 338.712 490.338 336.445 C 491.672 334.178 493.699 330.63 494.793 328.576 C 495.886 326.522 499.994 318.466 503.889 310.704 C 507.783 302.942 511.198 295.9 511.518 295.1 C 511.811 294.3 512.024 293.606 511.998 293.579 C 511.971 293.553 508.157 295.58 503.542 298.061 C 498.927 300.568 493.432 303.556 491.325 304.729 C 489.245 305.876 487.404 306.836 487.271 306.836 C 487.137 306.836 487.004 306.756 487.004 306.65 C 487.031 306.516 488.098 304.516 489.405 302.168 C 490.712 299.821 492.499 296.327 493.352 294.433 C 494.233 292.539 495.486 289.525 496.153 287.764 C 496.82 286.004 497.78 283.176 498.314 281.496 C 498.821 279.815 499.674 276.695 500.181 274.561 C 500.688 272.427 501.355 269.199 501.648 267.359 C 501.942 265.518 502.342 262.771 502.528 261.223 C 502.742 259.543 502.875 255.382 502.875 250.821 C 502.875 246.126 502.742 242.285 502.528 240.818 C 502.342 239.484 501.781 235.59 501.275 232.149 C 500.768 228.708 500.208 225.107 500.074 224.146 C 499.914 223.186 499.648 222.332 499.488 222.226 C 499.301 222.092 498.794 222.092 498.341 222.172 C 497.887 222.279 495.86 223.266 493.806 224.36 C 491.752 225.48 488.631 227.054 486.871 227.907 C 485.11 228.734 482.523 229.801 481.136 230.255 C 479.749 230.708 477.268 231.375 475.667 231.748 C 474.067 232.095 471.826 232.522 470.733 232.682 C 469.639 232.842 466.998 233.002 464.864 233.002 C 462.544 233.002 459.983 232.842 458.462 232.602 C 457.075 232.362 454.861 231.855 453.528 231.482 C 452.194 231.108 449.873 230.175 448.326 229.454 C 446.779 228.708 444.565 227.481 443.392 226.68 C 442.218 225.907 439.764 223.773 437.923 221.959 C 436.083 220.172 433.869 217.718 432.989 216.544 C 432.108 215.37 430.668 213.263 429.814 211.876 C 428.934 210.489 427.414 207.715 426.427 205.741 C 425.44 203.767 424.106 200.753 423.439 199.072 C 422.772 197.392 421.732 194.564 421.145 192.804 C 420.532 191.043 420.052 189.39 420.052 189.15 C 420.052 188.883 420.772 187.442 421.679 185.949 C 422.586 184.428 424.266 181.414 425.466 179.2 C 426.64 177.013 428.321 173.705 429.201 171.865 C 430.054 170.024 431.495 166.85 432.375 164.796 C 433.255 162.742 434.616 159.381 435.389 157.327 C 436.163 155.273 437.23 152.339 437.737 150.792 C 438.243 149.245 439.15 146.311 439.737 144.257 C 440.351 142.203 441.178 139.082 441.631 137.321 C 442.058 135.561 442.671 132.867 442.965 131.32 C 443.258 129.773 443.685 127.025 443.898 125.185 C 444.138 123.344 444.432 120.17 444.565 118.116 C 444.725 116.062 444.912 112.995 444.992 111.314 C 445.099 109.634 445.019 105.739 444.859 102.645 C 444.699 99.551 444.378 95.656 444.165 93.976 C 443.952 92.295 443.472 89.468 443.098 87.707 C 442.725 85.947 441.978 83.066 441.471 81.306 C 440.964 79.545 439.871 76.424 439.07 74.37 C 438.27 72.316 436.883 69.222 436.029 67.515 C 435.149 65.781 433.762 63.194 432.909 61.78 C 432.055 60.34 430.935 58.526 430.428 57.779 L 429.521 56.365 C 426.427 56.365 424.506 56.498 423.252 56.632 C 421.999 56.792 419.438 57.219 417.517 57.592 C 415.597 57.966 412.236 58.792 410.049 59.433 C 407.835 60.073 404.554 61.166 402.713 61.86 C 400.873 62.527 397.698 63.861 395.645 64.794 C 393.591 65.754 390.23 67.435 388.176 68.555 C 386.122 69.676 382.894 71.543 380.974 72.716 C 379.053 73.863 376.172 75.731 374.572 76.824 C 372.971 77.945 370.571 79.652 369.237 80.639 C 367.903 81.626 365.209 83.76 363.209 85.333 C 361.208 86.934 357.66 89.921 355.34 91.975 C 352.992 94.002 349.285 97.47 347.097 99.631 C 344.883 101.791 342.883 103.552 342.616 103.579 C 342.376 103.579 341.282 103.258 340.215 102.885 C 339.175 102.512 335.894 101.365 332.96 100.324 C 330.026 99.311 325.358 97.817 322.557 96.99 C 319.756 96.19 315.088 94.963 312.154 94.243 C 309.22 93.522 304.952 92.589 302.685 92.135 C 300.417 91.708 296.496 91.015 294.016 90.642 C 291.535 90.268 287.854 89.761 285.88 89.548 C 283.906 89.334 278.731 89.068 274.41 88.988 C 267.741 88.854 265.954 88.908 262.807 89.308 C 259.472 89.735 258.619 89.735 254.938 89.441 C 252.67 89.254 247.069 89.121 242.534 89.121 C 238 89.148 232.238 89.281 229.731 89.441 C 227.223 89.601 223.622 89.895 221.728 90.135 C 219.834 90.348 216.5 90.828 214.313 91.202 C 212.152 91.548 208.925 92.162 207.111 92.535 C 205.324 92.909 201.696 93.762 199.055 94.403 C 196.414 95.069 192.04 96.27 189.319 97.043 C 186.598 97.844 182.277 99.204 179.716 100.058 C 177.156 100.938 174.061 102.031 172.834 102.485 L 170.647 103.312 C 168.673 101.551 166.486 99.497 164.512 97.577 C 162.511 95.683 159.337 92.749 157.443 91.068 C 155.523 89.388 152.829 87.121 151.442 86 C 150.055 84.853 147.947 83.226 146.774 82.319 C 145.6 81.439 142.719 79.358 140.372 77.704 C 138.024 76.077 134.423 73.703 132.37 72.45 C 130.316 71.169 126.821 69.169 124.634 67.995 C 122.42 66.795 118.819 65.061 116.632 64.127 C 114.418 63.194 110.897 61.833 108.763 61.113 C 106.629 60.393 102.921 59.273 100.494 58.632 C 98.066 57.992 94.412 57.219 92.358 56.899 C 90.304 56.605 87.663 56.365 86.463 56.365 C 84.729 56.365 84.222 56.472 83.902 56.845 Z " fill="rgb(23,23,48)"/><path d=" M 98.066 88.641 C 98.226 88.641 100.307 89.628 102.708 90.855 C 105.082 92.082 108.363 93.922 109.963 94.936 C 111.59 95.95 114.098 97.684 115.565 98.75 C 117.032 99.844 118.952 101.338 119.833 102.085 C 120.713 102.832 122.447 104.352 123.674 105.446 C 124.901 106.539 127.355 108.993 129.115 110.914 C 130.876 112.835 134.183 116.729 136.451 119.583 C 138.718 122.437 141.305 125.692 142.212 126.785 C 143.093 127.879 144.986 130.146 146.427 131.8 C 148.534 134.201 148.961 134.814 148.587 134.921 C 148.321 135.001 146.667 134.707 144.906 134.281 C 143.146 133.827 140.318 133.24 138.638 132.947 C 136.957 132.653 134.317 132.28 132.77 132.12 C 131.223 131.987 128.768 131.853 127.301 131.853 C 125.834 131.853 124.02 131.96 121.887 132.253 L 122.26 133.454 C 122.447 134.121 122.953 135.428 123.38 136.388 C 123.807 137.348 124.607 139.509 125.167 141.189 C 125.701 142.87 126.208 144.844 126.288 145.591 C 126.421 146.818 126.394 146.951 125.808 147.111 C 125.461 147.218 123.487 147.484 121.433 147.698 C 118.872 147.965 116.898 148.338 115.165 148.898 C 113.778 149.352 112.284 150.018 111.03 151.005 L 112.417 153.886 C 113.164 155.487 113.964 157.514 114.151 158.394 C 114.338 159.328 114.471 161.568 114.471 163.729 C 114.444 166.637 114.311 167.944 113.858 169.597 C 113.537 170.771 112.871 172.638 112.337 173.732 C 111.83 174.826 110.897 176.239 110.283 176.879 C 109.67 177.493 109.11 178 109.03 178 C 108.949 178.026 108.523 177.2 108.043 176.213 C 107.562 175.226 106.602 172.772 105.882 170.798 C 105.162 168.824 103.828 164.903 102.894 162.129 C 101.988 159.354 100.654 154.953 99.96 152.392 C 99.267 149.832 98.2 145.51 97.613 142.79 C 96.999 140.069 96.226 136.041 95.852 133.854 C 95.479 131.64 94.999 128.466 94.759 126.785 C 94.545 125.105 94.225 121.424 94.065 118.65 C 93.905 115.822 93.825 111.047 93.905 107.846 C 94.012 104.699 94.199 101.258 94.359 100.244 C 94.519 99.231 94.919 97.123 95.266 95.576 C 95.612 94.029 96.333 91.842 96.839 90.695 C 97.373 89.575 97.933 88.641 98.066 88.641 L 98.066 88.641 Z  M 415.597 88.641 C 415.89 88.641 416.264 89.148 416.717 90.108 C 417.091 90.908 417.678 92.615 418.051 93.922 C 418.424 95.203 418.905 97.257 419.118 98.51 C 419.331 99.764 419.651 102.645 419.811 104.912 C 419.998 107.393 420.025 111.181 419.918 114.382 C 419.838 117.316 419.625 120.917 419.491 122.384 C 419.358 123.851 418.985 126.732 418.691 128.786 C 418.398 130.84 417.758 134.734 417.251 137.455 C 416.744 140.176 415.624 145.217 414.743 148.658 C 413.863 152.099 412.556 156.9 411.809 159.328 C 411.036 161.755 409.942 165.116 409.355 166.797 C 408.768 168.477 407.595 171.598 406.768 173.705 C 405.594 176.639 405.087 177.653 403.78 178.533 L 402.58 176.986 C 401.913 176.159 400.979 174.692 400.526 173.732 C 400.072 172.772 399.406 170.851 399.059 169.464 C 398.525 167.41 398.419 166.236 398.419 163.329 C 398.392 160.608 398.525 159.248 398.926 157.727 C 399.219 156.634 399.992 154.633 401.886 150.925 L 400.499 150.072 C 399.726 149.592 398.205 148.978 397.112 148.658 C 396.018 148.338 393.244 147.911 390.977 147.724 C 388.709 147.511 386.709 147.218 386.575 147.058 Q 386.309 146.791 386.629 145.11 C 386.815 144.203 387.429 142.15 387.989 140.522 C 388.576 138.895 389.509 136.415 390.07 135.001 C 390.63 133.56 391.003 132.307 390.897 132.2 C 390.763 132.093 388.176 131.987 385.162 131.987 C 381.987 131.987 378.626 132.147 377.239 132.36 C 375.906 132.547 373.692 132.947 372.305 133.24 C 370.918 133.534 368.917 133.987 367.903 134.281 C 366.89 134.601 365.769 134.787 365.449 134.734 C 364.916 134.654 365.076 134.414 366.73 132.52 C 367.77 131.346 371.744 126.492 375.586 121.717 C 380.867 115.155 383.668 111.954 387.109 108.513 C 389.59 106.006 392.897 102.938 394.444 101.658 C 395.991 100.404 398.739 98.377 400.579 97.123 C 402.42 95.87 404.634 94.429 405.514 93.896 C 406.394 93.389 408.902 91.975 411.116 90.802 C 413.303 89.628 415.33 88.641 415.57 88.641 L 415.597 88.641 Z  M 141.465 181.041 C 145.387 181.094 149.681 181.334 151.868 181.601 C 153.922 181.841 157.71 182.454 160.271 182.961 C 162.832 183.441 166.273 184.215 167.873 184.668 C 169.473 185.122 172.488 186.029 174.542 186.696 C 176.595 187.389 180.063 188.643 182.277 189.523 C 184.464 190.403 188.679 192.297 191.613 193.738 C 194.547 195.178 198.442 197.232 200.282 198.272 C 202.123 199.339 205.297 201.313 207.351 202.673 C 209.405 204.034 212.472 206.141 217.22 209.502 L 217.62 208.488 C 217.914 207.742 217.994 206.435 217.967 203.34 C 217.941 200.459 217.727 197.899 217.274 194.938 C 216.9 192.591 216.634 190.643 216.66 190.617 C 216.66 190.563 217.274 190.723 218.021 190.937 C 218.741 191.15 221.035 192.057 223.089 192.937 C 225.143 193.844 228.504 195.418 230.558 196.458 C 232.611 197.472 235.439 198.992 236.826 199.819 C 238.213 200.62 240.56 202.113 242.027 203.1 C 243.495 204.087 246.135 206.008 247.896 207.395 C 249.63 208.755 251.363 210.302 251.71 210.809 C 252.297 211.663 252.35 211.929 252.19 214.01 C 252.11 215.264 251.363 219.585 250.563 223.613 C 249.736 227.641 248.269 234.069 247.309 237.884 C 246.375 241.698 244.855 247.166 243.975 250.02 C 243.094 252.874 241.654 257.142 240.774 259.49 C 239.893 261.837 238.213 265.731 237.039 268.159 C 235.892 270.586 234.719 272.773 234.479 273.04 C 234.132 273.387 233.812 273.467 233.225 273.334 C 232.771 273.254 231.171 272.533 229.624 271.733 C 228.077 270.933 225.89 269.599 224.769 268.746 C 223.649 267.919 221.542 266.158 220.128 264.825 C 218.687 263.491 216.5 261.277 215.246 259.89 C 214.019 258.503 211.966 255.969 210.712 254.288 C 209.458 252.608 207.538 249.78 206.444 248.02 C 205.35 246.259 203.483 242.845 202.336 240.418 C 201.162 237.99 200.176 235.99 200.176 235.936 C 200.149 235.91 199.962 235.936 199.749 236.016 C 199.535 236.07 198.975 236.95 198.522 237.937 C 198.042 238.924 197.508 240.524 197.348 241.485 C 197.108 242.712 197.055 244.632 197.161 248.153 C 197.268 250.874 197.401 253.541 197.481 254.075 C 197.561 254.795 197.508 255.088 197.268 255.088 C 197.108 255.062 195.934 254.101 194.681 252.901 C 193.427 251.701 191.4 249.887 190.146 248.847 C 188.892 247.806 186.865 246.233 185.611 245.326 C 184.358 244.445 182.01 242.898 180.41 241.885 C 178.809 240.871 175.902 239.244 174.008 238.257 C 172.087 237.27 169.047 235.83 167.206 235.083 C 165.366 234.336 162.431 233.269 160.671 232.709 C 158.91 232.149 155.843 231.322 153.869 230.868 C 151.895 230.415 149.014 229.855 147.467 229.588 C 145.467 229.268 142.319 229.108 136.531 229.028 C 129.222 228.894 127.968 228.948 124.261 229.454 C 121.993 229.775 119.379 230.175 116.845 230.681 L 116.738 234.683 C 116.632 238.497 116.578 238.817 115.565 241.751 C 114.978 243.432 113.884 245.966 113.111 247.353 C 112.337 248.74 110.923 250.954 109.936 252.288 C 108.949 253.621 106.575 256.262 104.655 258.156 C 102.761 260.076 99.8 262.664 98.12 263.918 C 96.439 265.171 93.852 266.958 92.385 267.865 C 90.918 268.772 88.09 270.346 86.116 271.333 C 84.142 272.347 80.888 273.787 78.914 274.507 C 76.94 275.254 73.873 276.214 72.112 276.668 C 70.352 277.095 67.578 277.655 65.977 277.895 C 64.35 278.135 61.523 278.375 59.655 278.375 C 57.815 278.402 56.214 278.482 56.134 278.562 C 56.028 278.642 56.455 280.082 57.068 281.763 C 57.682 283.443 58.855 286.457 59.709 288.431 C 60.562 290.405 62.029 293.659 62.963 295.633 C 63.897 297.607 65.55 300.861 66.617 302.835 C 67.711 304.809 69.658 308.224 70.992 310.438 C 72.299 312.625 74.646 316.359 76.22 318.707 C 77.767 321.054 80.355 324.708 81.955 326.842 C 83.556 328.976 85.903 331.964 87.157 333.511 C 88.41 335.031 91.131 338.152 93.185 340.446 C 95.239 342.713 98.547 346.208 100.52 348.182 C 102.494 350.182 105.669 353.17 107.589 354.824 C 109.483 356.504 112.204 358.771 113.591 359.918 C 114.978 361.039 117.619 363.093 119.459 364.453 C 121.3 365.813 124.341 367.974 126.261 369.254 C 128.155 370.535 130.556 372.108 131.596 372.722 C 132.61 373.362 135.197 374.883 137.331 376.083 C 139.465 377.283 141.519 378.617 141.919 379.044 C 142.586 379.711 142.612 379.817 142.186 380.031 C 141.892 380.191 140.985 380.164 139.732 379.951 C 138.638 379.764 135.864 379.15 133.597 378.59 C 131.329 378.03 127.541 376.963 125.194 376.216 C 122.847 375.496 119.539 374.349 117.859 373.709 C 116.178 373.042 113.111 371.788 111.057 370.881 C 109.003 369.974 105.455 368.241 103.188 367.067 C 100.921 365.893 97.56 364.026 95.719 362.906 C 93.879 361.812 91.291 360.185 89.984 359.305 C 88.65 358.425 86.33 356.797 84.783 355.677 C 83.235 354.583 80.888 352.85 79.581 351.809 C 78.247 350.796 75.553 348.555 73.579 346.875 C 71.606 345.167 68.085 341.94 65.737 339.646 C 63.417 337.379 60.242 334.124 58.695 332.444 C 57.148 330.763 54.907 328.176 53.734 326.709 C 52.56 325.242 51.413 323.855 51.173 323.641 C 50.906 323.428 50.133 322.521 49.413 321.641 C 48.692 320.76 46.478 317.773 44.478 314.972 C 42.477 312.171 39.703 308.17 38.289 306.036 C 36.902 303.902 35.062 300.968 34.235 299.501 C 33.381 298.034 31.621 294.673 30.314 292.032 C 29.007 289.392 27.38 285.737 26.659 283.897 C 25.939 282.056 24.872 279.069 24.259 277.228 C 23.672 275.388 23.058 273.36 22.925 272.693 C 22.765 272.027 22.632 270.826 22.632 268.559 L 23.592 270.293 C 24.125 271.253 25.006 272.693 25.566 273.494 C 26.099 274.294 27.193 275.681 27.993 276.535 C 28.793 277.388 30.394 278.882 31.567 279.815 C 32.741 280.749 34.395 281.869 35.222 282.296 C 36.075 282.75 36.769 283.07 36.769 283.016 C 36.769 282.99 36.422 280.936 35.969 278.428 C 35.542 275.921 35.035 272.32 34.875 270.426 C 34.715 268.532 34.635 265.625 34.715 264.024 C 34.795 262.424 34.982 260.637 35.435 259.09 L 44.691 258.983 C 53.227 258.903 54.294 258.823 57.975 258.209 C 60.162 257.809 62.883 257.249 63.977 256.956 C 65.07 256.662 67.418 255.915 69.178 255.302 C 70.939 254.715 73.873 253.488 75.713 252.634 C 77.554 251.754 80.248 250.26 81.715 249.3 C 83.182 248.34 85.209 246.846 86.25 246.019 C 87.263 245.166 89.157 243.405 90.438 242.125 C 91.718 240.818 93.505 238.79 94.412 237.617 C 95.292 236.443 96.599 234.523 97.32 233.349 C 98.013 232.175 99.027 230.388 99.533 229.348 C 100.04 228.307 100.894 226.467 101.401 225.213 C 101.907 223.96 102.708 221.799 103.135 220.412 C 103.588 219.025 104.095 217.398 104.255 216.811 C 104.415 216.224 104.948 213.717 105.455 211.209 C 105.962 208.702 106.549 206.435 106.736 206.141 C 106.949 205.848 108.309 204.941 109.75 204.141 C 111.19 203.34 113.457 202.22 114.791 201.66 C 116.098 201.073 118.579 200.166 120.259 199.606 C 121.94 199.046 124.714 198.272 126.394 197.899 C 128.075 197.525 130.289 197.099 131.329 196.938 C 132.343 196.805 135.57 196.672 138.451 196.672 C 141.359 196.672 143.733 196.592 143.733 196.458 C 143.733 196.352 143.466 195.791 143.119 195.205 C 142.799 194.618 141.332 192.697 139.865 190.937 C 138.398 189.176 136.104 186.509 134.744 184.988 C 133.383 183.495 132.236 182.161 132.209 182.001 C 132.183 181.868 132.77 181.574 133.49 181.334 C 134.557 181.014 136.024 180.961 141.465 181.041 L 141.465 181.041 Z  M 373.798 180.987 C 377.719 180.961 379.96 181.067 380.574 181.281 C 381.08 181.467 381.534 181.707 381.587 181.868 C 381.614 182.001 380.28 183.708 378.573 185.602 C 376.866 187.496 374.545 190.217 373.425 191.604 C 372.305 192.991 371.131 194.511 370.811 194.938 C 370.517 195.365 370.197 195.978 370.091 196.272 C 369.931 196.805 370.037 196.805 375.879 196.725 C 379.187 196.672 382.921 196.778 384.335 196.938 C 385.722 197.099 388.362 197.552 390.203 197.925 C 392.044 198.299 395.218 199.126 397.272 199.793 C 399.566 200.54 402.447 201.74 404.714 202.914 C 407.488 204.327 408.555 205.021 408.928 205.608 C 409.168 206.034 409.515 207.235 409.675 208.275 C 409.809 209.315 410.289 212.009 410.716 214.277 C 411.169 216.544 412.076 220.092 412.743 222.146 C 413.436 224.2 414.797 227.561 415.784 229.614 C 416.771 231.668 418.158 234.256 418.851 235.349 C 419.571 236.443 420.958 238.364 421.945 239.617 C 422.932 240.871 424.826 242.898 426.133 244.152 C 427.44 245.406 429.468 247.113 430.641 247.966 C 431.788 248.82 433.949 250.207 435.416 251.061 C 436.883 251.887 439.044 253.008 440.217 253.541 C 441.391 254.075 443.792 255.008 445.552 255.622 C 447.313 256.209 449.66 256.956 450.754 257.249 C 451.847 257.542 453.821 257.943 455.155 258.156 C 456.489 258.369 460.543 258.743 464.224 258.983 C 469.746 259.33 471.56 259.356 474.76 259.09 C 477.641 258.849 478.708 258.849 478.895 259.09 C 479.055 259.25 479.188 262.157 479.242 266.238 C 479.322 272.373 479.268 273.387 478.762 275.761 C 478.468 277.228 478.015 279.362 477.748 280.482 C 477.508 281.629 477.375 282.616 477.481 282.696 C 477.615 282.776 478.335 282.536 479.082 282.163 C 479.855 281.816 481.669 280.562 483.083 279.362 C 484.523 278.188 486.444 276.294 487.324 275.147 C 488.231 274.027 489.458 272.187 491.165 269.092 L 491.245 270.693 C 491.299 272.08 491.058 273.014 489.591 277.361 C 488.658 280.162 487.137 284.163 486.23 286.297 C 485.323 288.431 483.59 292.086 482.389 294.433 C 481.189 296.78 479.215 300.275 478.041 302.168 C 476.841 304.062 474.787 307.21 473.453 309.104 C 472.12 310.998 469.372 314.732 467.345 317.373 C 465.344 320.014 463.104 322.761 462.357 323.508 C 461.637 324.228 459.956 326.095 458.649 327.642 C 457.315 329.19 454.808 331.937 453.021 333.751 C 451.26 335.565 448.006 338.686 445.819 340.686 C 443.605 342.687 440.751 345.221 439.417 346.314 C 438.083 347.408 435.283 349.622 433.149 351.222 C 431.015 352.823 427.654 355.224 425.68 356.531 C 423.706 357.864 420.105 360.132 417.678 361.572 C 415.25 363.013 410.876 365.387 407.941 366.854 C 405.007 368.321 400.686 370.295 398.339 371.282 C 395.991 372.242 391.91 373.762 389.269 374.642 C 386.629 375.523 382.121 376.883 379.267 377.657 C 376.412 378.43 373.745 379.017 373.318 378.964 C 372.918 378.91 372.598 378.777 372.598 378.644 C 372.598 378.537 373.585 377.87 374.785 377.15 C 376.012 376.43 378.44 374.989 380.2 373.949 C 381.961 372.909 385.082 370.935 387.135 369.548 C 389.189 368.187 392.497 365.84 394.471 364.373 C 396.445 362.906 399.032 360.905 400.206 359.945 C 401.38 358.985 403.594 357.144 405.141 355.81 C 406.688 354.503 410.716 350.662 414.103 347.275 C 417.491 343.887 421.412 339.726 422.852 338.045 C 424.293 336.365 426.64 333.537 428.027 331.777 C 429.441 330.016 431.708 327.082 433.042 325.242 C 434.376 323.401 436.856 319.8 438.537 317.239 C 440.244 314.679 442.671 310.758 443.978 308.57 C 445.259 306.356 447.713 301.795 449.42 298.434 C 451.127 295.073 453.261 290.565 454.168 288.431 C 455.075 286.297 456.275 283.23 456.889 281.629 C 457.476 280.029 457.929 278.668 457.876 278.615 C 457.849 278.562 456.195 278.482 454.221 278.428 C 452.247 278.375 449.367 278.135 447.819 277.922 C 446.272 277.682 443.765 277.175 442.218 276.801 C 440.671 276.401 438.057 275.628 436.403 275.067 C 434.776 274.481 432.135 273.44 430.535 272.747 C 428.961 272.027 426.347 270.72 424.746 269.786 C 423.146 268.852 420.612 267.305 419.145 266.345 C 417.678 265.358 415.277 263.597 413.836 262.424 C 412.369 261.25 409.809 258.849 408.101 257.062 C 406.394 255.302 404.234 252.741 403.273 251.407 C 402.313 250.047 400.979 247.833 400.286 246.473 C 399.592 245.139 398.632 242.872 398.179 241.485 C 397.378 239.137 397.298 238.657 397.138 230.815 L 395.324 230.415 C 394.338 230.201 392.39 229.828 391.003 229.588 C 389.189 229.294 386.149 229.108 380.334 229.028 C 373.638 228.894 371.558 228.974 368.597 229.348 C 366.623 229.588 363.929 230.015 362.595 230.281 C 361.261 230.548 358.994 231.082 357.527 231.455 C 356.06 231.828 353.313 232.655 351.392 233.322 C 349.471 233.962 346.377 235.189 344.457 236.016 C 342.536 236.843 339.549 238.31 337.788 239.271 C 336.028 240.231 333.093 242.018 331.253 243.245 C 329.412 244.445 326.665 246.446 325.118 247.7 C 323.571 248.927 321.09 251.087 319.57 252.501 C 318.076 253.941 316.689 255.088 316.502 255.088 C 316.262 255.088 316.235 254.715 316.422 253.541 C 316.555 252.714 316.689 249.754 316.689 246.953 C 316.715 242.738 316.635 241.618 316.235 240.284 C 315.969 239.404 315.355 237.99 314.902 237.137 C 314.395 236.203 313.888 235.616 313.675 235.67 C 313.461 235.723 313.034 236.523 312.714 237.483 C 312.394 238.444 311.327 240.791 310.367 242.685 C 309.407 244.579 307.726 247.54 306.659 249.22 C 305.592 250.901 303.832 253.435 302.765 254.822 C 301.698 256.209 299.777 258.529 298.497 259.996 C 297.217 261.437 294.842 263.811 293.242 265.278 C 291.642 266.745 289.294 268.612 288.041 269.466 C 286.787 270.319 284.813 271.52 283.639 272.107 C 282.466 272.693 281.025 273.227 279.398 273.36 L 277.718 270.159 C 276.811 268.399 275.237 264.851 274.197 262.29 C 273.183 259.73 271.663 255.595 270.862 253.088 C 270.062 250.58 268.888 246.819 268.302 244.685 C 267.715 242.551 266.674 238.657 266.034 236.016 C 265.394 233.376 264.487 229.481 264.034 227.347 C 263.554 225.213 262.727 221.079 261.1 212.81 L 261.713 211.609 C 262.086 210.836 263.1 209.715 264.567 208.462 C 265.821 207.395 268.088 205.634 269.635 204.541 C 271.182 203.474 273.716 201.793 275.29 200.833 C 276.891 199.873 279.878 198.192 281.959 197.099 C 284.066 196.005 287.427 194.378 289.428 193.498 C 291.455 192.591 293.909 191.63 294.896 191.364 C 295.909 191.07 296.763 190.883 296.843 190.937 C 296.923 190.99 296.71 193.124 296.39 195.658 C 296.07 198.192 295.803 201.66 295.776 203.34 C 295.776 205.021 295.909 207.075 296.043 207.875 C 296.203 208.675 296.39 209.395 296.443 209.475 C 296.523 209.555 297.163 209.182 297.883 208.675 C 298.604 208.168 300.924 206.515 303.031 205.047 C 305.112 203.554 308.9 201.1 311.381 199.606 C 313.861 198.112 318.663 195.525 322.05 193.871 C 325.438 192.19 330.159 190.057 332.587 189.123 C 335.014 188.163 338.535 186.882 340.456 186.295 C 342.376 185.682 345.844 184.695 348.191 184.135 C 350.538 183.548 354.193 182.774 356.327 182.428 C 358.461 182.081 361.528 181.654 363.129 181.494 C 364.729 181.334 366.49 181.147 366.996 181.121 C 367.503 181.067 370.571 181.014 373.798 180.987 L 373.798 180.987 Z  M 366.383 294.06 C 366.916 294.033 366.97 294.113 366.783 294.7 C 366.676 295.073 364.302 297.394 361.128 300.221 C 358.087 302.915 354.193 306.25 352.459 307.663 C 350.698 309.077 347.764 311.344 345.924 312.678 C 344.03 314.065 341.336 315.746 339.655 316.546 C 338.055 317.346 335.467 318.466 333.92 319.08 C 332.373 319.693 330.266 320.36 329.252 320.574 C 328.239 320.787 326.452 320.974 325.305 320.974 C 324.184 320.974 322.45 320.814 321.437 320.6 C 320.45 320.387 318.796 319.854 317.782 319.427 C 316.769 319 315.008 318.146 313.915 317.506 C 312.821 316.866 310.847 315.612 309.567 314.732 C 308.126 313.718 307.246 312.918 307.246 312.651 C 307.246 312.358 308.18 311.558 309.7 310.544 C 311.06 309.637 313.381 308.304 314.848 307.583 C 316.315 306.836 318.769 305.716 320.316 305.076 C 321.864 304.462 324.984 303.315 327.252 302.569 C 329.519 301.795 334.134 300.488 337.521 299.634 C 340.909 298.781 345.764 297.661 348.324 297.127 C 350.885 296.62 355.526 295.767 358.594 295.26 C 361.662 294.753 364.542 294.273 364.996 294.22 C 365.449 294.166 366.063 294.086 366.383 294.06 L 366.383 294.06 Z  M 148.214 294.3 C 148.748 294.3 151.175 294.62 153.602 294.993 C 156.03 295.367 160.991 296.273 164.672 296.994 C 168.326 297.714 173.688 298.914 176.542 299.661 C 179.396 300.381 184.011 301.768 186.812 302.702 C 189.586 303.609 193.427 305.049 195.347 305.903 C 197.241 306.73 199.589 307.823 200.549 308.357 C 201.509 308.89 203.163 309.931 204.23 310.678 C 205.297 311.424 206.257 312.278 206.337 312.571 C 206.417 312.945 206.257 313.265 205.857 313.585 C 205.51 313.852 204.07 314.839 202.683 315.772 C 201.296 316.706 198.895 318.066 197.348 318.787 C 195.801 319.533 193.667 320.307 192.6 320.547 C 191.56 320.787 189.693 320.974 188.465 320.974 C 187.265 320.974 185.505 320.814 184.544 320.6 C 183.584 320.414 181.29 319.613 179.396 318.867 C 177.529 318.12 174.968 316.973 173.661 316.333 C 172.381 315.692 169.954 314.172 168.273 312.972 C 166.593 311.745 163.952 309.744 162.405 308.517 C 160.858 307.263 157.443 304.382 154.829 302.088 C 152.188 299.768 149.334 297.234 148.454 296.434 C 147.494 295.527 146.934 294.833 147.04 294.646 C 147.147 294.46 147.681 294.3 148.214 294.3 L 148.214 294.3 Z  M 236.693 311.931 L 238.533 313.852 C 239.547 314.919 241.174 316.919 242.161 318.306 C 243.148 319.693 245.015 322.574 246.295 324.708 C 247.576 326.842 249.283 329.963 250.083 331.644 C 250.91 333.324 252.244 336.392 253.071 338.446 C 253.897 340.499 255.178 343.94 255.898 346.128 C 256.645 348.288 257.285 350.049 257.365 350.049 C 257.445 350.075 258.245 347.942 259.152 345.327 C 260.059 342.713 261.42 339.139 262.167 337.379 C 262.913 335.618 264.461 332.39 265.607 330.176 C 266.728 327.989 268.435 324.922 269.395 323.428 C 270.329 321.907 272.196 319.213 273.556 317.426 C 274.917 315.639 276.411 313.718 277.771 312.198 L 279.905 313.932 C 281.079 314.892 283.346 316.946 284.946 318.52 C 286.52 320.094 288.707 322.441 289.774 323.775 C 290.841 325.108 292.415 327.242 293.295 328.576 C 294.176 329.91 295.669 332.31 296.576 333.911 C 297.51 335.511 298.87 338.099 299.591 339.646 C 300.311 341.193 301.538 344.074 302.311 346.048 C 303.085 348.022 304.152 351.009 304.685 352.663 C 305.219 354.29 306.072 357.278 306.579 359.251 C 307.086 361.225 307.459 363.066 307.379 363.333 C 307.299 363.573 307.299 364.24 307.379 364.8 C 307.486 365.6 307.619 365.787 308.1 365.787 C 308.446 365.787 308.846 365.68 309.033 365.573 C 309.22 365.467 309.433 364.8 309.513 364.053 C 309.62 363.333 310.1 361.519 310.607 360.052 C 311.114 358.585 312.127 355.17 312.874 352.449 C 313.621 349.729 314.288 347.355 314.395 347.168 C 314.528 346.901 314.688 346.928 315.008 347.301 C 315.248 347.568 315.622 348.395 315.835 349.115 C 316.075 349.862 316.795 352.263 317.489 354.45 C 318.182 356.664 319.276 360.558 319.916 363.119 C 320.556 365.68 321.383 369.334 321.757 371.255 C 322.13 373.175 322.61 376.163 322.877 377.923 C 323.171 379.951 323.331 382.992 323.357 386.192 C 323.384 388.993 323.224 393.528 323.064 396.329 C 322.877 399.129 322.557 402.25 322.317 403.264 C 322.104 404.278 321.517 406.625 321.01 408.465 C 320.503 410.306 319.65 412.947 319.116 414.334 C 318.556 415.721 317.516 418.068 316.795 419.535 C 316.075 421.002 314.902 423.136 314.235 424.31 C 313.541 425.457 312.074 427.618 310.954 429.111 C 309.833 430.578 307.806 432.952 306.419 434.34 C 305.032 435.727 302.765 437.754 301.378 438.847 C 299.991 439.914 298.337 441.088 297.697 441.435 C 296.63 442.048 296.55 442.048 295.829 441.622 C 295.429 441.382 294.336 440.501 293.375 439.674 C 292.415 438.821 290.628 437.407 289.374 436.473 C 288.121 435.567 286.067 434.179 284.76 433.379 C 283.479 432.579 281.159 431.299 279.558 430.498 C 277.984 429.698 276.224 428.845 275.637 428.605 C 275.05 428.364 273.37 427.724 271.903 427.217 C 270.436 426.711 267.795 425.937 266.034 425.484 C 263.287 424.79 262.193 424.657 258.299 424.55 C 254.938 424.443 253.071 424.523 251.097 424.817 C 249.63 425.057 246.989 425.67 245.228 426.151 C 243.468 426.657 241.014 427.484 239.76 427.964 C 238.506 428.471 235.999 429.618 234.159 430.552 C 232.318 431.485 229.144 433.379 227.09 434.74 C 225.036 436.1 222.022 438.314 220.421 439.648 C 218.821 440.981 217.354 442.075 217.22 442.075 C 217.087 442.075 216.287 441.622 215.487 441.088 C 214.686 440.555 213.406 439.648 212.686 439.061 C 211.939 438.501 210.338 437.114 209.111 435.993 C 207.884 434.846 205.91 432.792 204.737 431.405 C 203.59 430.018 201.776 427.618 200.762 426.07 C 199.749 424.523 198.015 421.483 196.948 419.269 C 195.854 417.081 194.441 413.64 193.774 411.666 C 193.133 409.692 192.28 406.625 191.88 404.864 C 191.4 402.704 191.08 400.356 190.946 397.662 C 190.813 395.475 190.573 392.167 190.386 390.327 C 190.119 387.499 190.146 386.299 190.493 382.458 C 190.733 379.977 191.213 376.19 191.586 374.056 C 191.933 371.922 192.573 368.747 192.947 366.987 C 193.347 365.226 194.12 362.106 194.707 360.052 C 195.267 357.998 196.254 354.583 196.921 352.449 C 197.588 350.316 198.362 348.128 198.602 347.568 C 198.895 346.955 199.269 346.554 199.535 346.581 C 199.935 346.581 200.015 346.821 200.015 347.862 C 200.015 348.582 200.602 351.222 201.456 354.183 C 202.256 356.984 203.323 360.452 203.857 361.919 C 204.39 363.386 204.95 364.72 205.084 364.853 C 205.217 364.986 205.484 365.04 205.67 364.96 C 205.857 364.853 206.151 363.973 206.337 362.959 C 206.524 361.946 207.218 359.198 207.884 356.851 C 208.551 354.503 209.512 351.383 210.045 349.915 C 210.578 348.448 211.619 345.808 212.339 344.047 C 213.086 342.287 214.446 339.326 215.38 337.459 C 216.313 335.565 217.834 332.817 218.767 331.323 C 219.674 329.803 221.275 327.429 222.315 326.042 C 223.355 324.655 225.303 322.308 226.61 320.84 C 227.943 319.373 230.157 317.186 231.518 315.986 C 232.905 314.759 234.612 313.372 235.359 312.838 L 236.693 311.931 Z " fill-rule="evenodd" fill="rgb(255,255,255)"/><path d=" M 274.943 98.137 C 278.971 98.19 283.213 98.43 286.013 98.75 C 288.494 99.044 292.095 99.524 294.016 99.817 C 295.936 100.111 298.737 100.591 300.284 100.884 C 301.831 101.178 305.059 101.845 307.486 102.378 C 309.913 102.938 314.288 104.032 317.222 104.832 C 320.156 105.632 324.771 107.02 327.492 107.9 C 330.213 108.78 334.774 110.407 337.628 111.501 C 340.482 112.594 343.336 113.688 343.977 113.928 C 344.777 114.248 345.097 114.542 345.097 114.915 C 345.07 115.209 344.03 116.622 342.749 118.089 C 341.469 119.53 339.495 121.877 338.348 123.291 C 337.228 124.705 336.294 125.958 336.294 126.118 C 336.294 126.278 336.881 127.212 337.575 128.252 C 338.268 129.266 339.895 131.24 341.229 132.627 C 342.563 133.987 344.35 135.641 345.23 136.255 C 346.11 136.895 347.604 137.775 348.564 138.228 C 349.525 138.682 351.205 139.242 352.299 139.482 C 354.006 139.856 354.54 139.856 356.033 139.562 C 356.994 139.375 358.541 138.842 359.501 138.362 C 360.461 137.882 362.302 136.548 363.635 135.428 C 364.969 134.281 365.743 133.694 364.702 134.841 L 365.769 134.734 C 366.356 134.654 368.037 134.281 369.504 133.907 C 370.971 133.534 373.238 133.027 374.572 132.787 C 375.906 132.573 378.413 132.253 380.173 132.093 C 381.934 131.907 385.055 131.853 387.109 131.933 C 389.163 132.04 390.897 132.173 390.977 132.253 C 391.057 132.333 390.63 133.56 390.07 135.001 C 389.509 136.415 388.576 138.895 387.989 140.522 C 387.429 142.15 386.815 144.203 386.629 145.11 Q 386.309 146.791 386.575 147.058 C 386.709 147.218 388.709 147.511 390.977 147.724 C 393.244 147.911 396.018 148.338 397.112 148.658 C 398.205 148.978 399.726 149.592 401.886 150.925 L 400.659 153.326 C 399.992 154.633 399.219 156.634 398.926 157.727 C 398.525 159.248 398.392 160.608 398.419 163.329 C 398.419 166.236 398.525 167.41 399.059 169.464 C 399.406 170.851 400.072 172.772 400.526 173.732 C 400.979 174.692 401.913 176.159 403.78 178.533 L 405.247 177.546 L 404.901 178.773 C 404.714 179.44 404.58 180.427 404.58 180.934 C 404.58 181.467 404.821 182.268 405.167 182.801 C 405.594 183.441 406.368 184.028 409.595 185.602 L 410.049 187.336 C 410.315 188.296 411.169 191.097 411.969 193.604 C 412.769 196.112 414.103 199.819 414.903 201.873 C 415.704 203.927 417.251 207.341 418.318 209.475 C 419.411 211.609 421.145 214.73 422.212 216.411 C 423.279 218.091 424.986 220.625 426.053 222.012 C 427.094 223.399 429.041 225.667 430.348 227.054 C 431.655 228.414 433.629 230.308 434.722 231.215 C 435.816 232.122 437.87 233.616 439.257 234.549 C 440.644 235.456 442.991 236.79 444.458 237.483 C 445.926 238.204 448.46 239.217 450.06 239.777 C 451.661 240.311 454.008 240.978 455.262 241.271 C 457.155 241.725 458.756 241.831 472.2 242.071 L 477.001 241.084 C 479.642 240.551 482.949 239.724 484.337 239.297 C 485.724 238.844 487.938 238.017 489.271 237.457 C 490.605 236.87 491.885 236.416 492.152 236.416 Q 492.606 236.416 492.872 237.43 C 493.032 237.964 493.272 239.911 493.406 241.751 C 493.539 243.592 493.779 246.659 493.939 248.553 C 494.073 250.447 494.286 252.848 494.366 253.888 C 494.473 254.928 494.393 257.142 494.233 258.823 C 494.073 260.503 493.646 263.277 493.299 264.958 C 492.952 266.638 492.392 268.986 491.405 272.293 L 491.138 269.092 L 490.045 271.093 C 489.431 272.187 488.204 274.027 487.297 275.174 C 486.417 276.294 484.497 278.188 483.056 279.362 C 481.642 280.562 479.829 281.816 479.055 282.163 C 478.308 282.536 477.588 282.776 477.455 282.696 C 477.348 282.616 477.481 281.629 477.721 280.482 C 477.988 279.362 478.442 277.228 478.735 275.761 C 479.242 273.387 479.295 272.373 479.215 266.238 C 479.162 262.157 479.028 259.25 478.868 259.09 C 478.682 258.849 477.615 258.849 474.734 259.09 C 471.533 259.356 469.719 259.33 464.197 258.983 C 460.516 258.743 456.462 258.369 455.128 258.156 C 453.794 257.943 451.821 257.542 450.727 257.249 C 449.633 256.956 447.286 256.209 445.525 255.622 C 443.765 255.008 441.364 254.075 440.191 253.541 C 439.017 253.008 436.856 251.887 435.389 251.061 C 433.922 250.207 431.762 248.82 430.615 247.966 C 429.441 247.113 427.414 245.406 426.107 244.152 C 424.8 242.898 422.906 240.871 421.919 239.617 C 420.932 238.364 419.545 236.443 418.825 235.349 C 418.131 234.256 416.744 231.668 415.757 229.614 C 414.77 227.561 413.41 224.2 412.716 222.146 C 412.049 220.092 411.142 216.544 410.689 214.277 C 410.262 212.009 409.782 209.315 409.649 208.275 C 409.489 207.235 409.142 206.034 408.902 205.608 C 408.528 205.021 407.461 204.327 404.687 202.914 C 402.42 201.74 399.539 200.54 397.245 199.793 C 395.191 199.126 392.017 198.299 390.176 197.925 C 388.336 197.552 385.695 197.099 384.308 196.938 C 382.894 196.778 379.16 196.672 375.852 196.725 C 370.011 196.805 369.904 196.805 370.064 196.272 C 370.171 195.978 370.491 195.365 370.784 194.938 C 371.104 194.511 372.278 192.991 373.398 191.604 C 374.519 190.217 376.839 187.496 378.546 185.602 C 380.254 183.708 381.587 182.028 381.561 181.868 C 381.507 181.734 381 181.441 380.414 181.254 C 379.613 180.961 377.799 180.907 372.171 181.014 C 367.076 181.121 363.769 181.334 360.835 181.734 C 358.567 182.028 355.206 182.588 353.366 182.961 C 351.525 183.308 348.431 184.028 346.484 184.535 C 344.563 185.042 341.602 185.895 339.949 186.429 C 338.322 186.962 334.987 188.163 332.56 189.123 C 330.133 190.057 325.411 192.19 322.024 193.871 C 318.636 195.525 313.835 198.112 311.354 199.606 C 308.873 201.1 305.085 203.554 303.005 205.047 C 300.898 206.515 298.577 208.168 297.857 208.675 C 297.136 209.182 296.496 209.555 296.416 209.475 C 296.363 209.395 296.176 208.675 296.016 207.875 C 295.883 207.075 295.749 205.021 295.749 203.34 C 295.776 201.66 296.043 198.192 296.363 195.658 C 296.683 193.124 296.896 190.99 296.816 190.937 C 296.736 190.883 295.883 191.07 294.869 191.364 C 293.882 191.63 291.428 192.591 289.401 193.498 C 287.4 194.378 284.039 196.005 281.932 197.099 C 279.852 198.192 276.864 199.873 275.264 200.833 C 273.69 201.793 271.156 203.474 269.609 204.541 C 268.062 205.634 265.794 207.395 264.541 208.462 C 263.073 209.742 262.06 210.836 261.686 211.609 C 261.313 212.383 261.046 212.676 260.966 212.41 C 260.886 212.196 260.299 208.648 259.632 204.541 C 258.966 200.433 258.245 195.631 258.005 193.871 C 257.765 192.11 257.525 190.163 257.472 189.55 C 257.392 188.91 257.205 188.349 257.072 188.269 C 256.938 188.189 256.698 188.403 256.565 188.749 C 256.458 189.07 256.271 190.057 256.165 190.937 C 256.058 191.817 255.791 193.871 255.578 195.471 C 255.338 197.072 254.804 200.566 254.351 203.207 C 253.924 205.848 253.257 209.982 252.884 212.41 C 252.51 214.837 252.137 216.891 252.03 216.998 C 251.95 217.104 251.95 216.544 252.057 215.797 C 252.137 215.024 252.244 213.823 252.27 213.076 C 252.27 212.089 252.11 211.503 251.657 210.809 C 251.337 210.302 249.603 208.755 247.869 207.395 C 246.109 206.008 243.468 204.087 242.001 203.1 C 240.534 202.113 238.186 200.62 236.799 199.819 C 235.412 198.992 232.585 197.472 230.531 196.458 C 228.477 195.418 225.116 193.844 223.062 192.937 C 221.008 192.057 218.714 191.15 217.994 190.937 C 217.247 190.723 216.634 190.563 216.634 190.617 C 216.607 190.643 216.874 192.591 217.247 194.938 C 217.701 197.899 217.914 200.459 217.941 203.34 C 217.967 206.435 217.887 207.742 217.194 209.502 L 214.126 207.341 C 212.446 206.141 209.378 204.034 207.324 202.673 C 205.27 201.313 202.096 199.339 200.256 198.272 C 198.415 197.232 194.521 195.178 191.586 193.738 C 188.652 192.297 184.438 190.403 182.25 189.523 C 180.036 188.643 176.569 187.389 174.515 186.696 C 172.461 186.029 169.447 185.122 167.846 184.668 C 166.246 184.215 162.805 183.441 160.244 182.961 C 157.683 182.454 153.896 181.841 151.842 181.601 C 149.788 181.361 145.227 181.094 141.706 181.014 C 136.291 180.881 135.064 180.934 133.757 181.307 C 132.93 181.547 132.236 181.868 132.236 182.001 C 132.236 182.161 133.356 183.495 134.717 185.015 C 136.077 186.509 138.371 189.176 139.838 190.937 C 141.305 192.697 142.772 194.618 143.093 195.205 C 143.439 195.791 143.706 196.352 143.706 196.485 C 143.706 196.592 141.332 196.672 138.425 196.672 C 135.544 196.672 132.343 196.805 131.303 196.938 C 130.262 197.099 128.048 197.525 126.368 197.899 C 124.687 198.272 121.913 199.046 120.233 199.606 C 118.552 200.166 116.072 201.073 114.764 201.66 C 113.457 202.22 111.163 203.34 109.723 204.141 C 108.283 204.941 106.922 205.848 106.709 206.141 C 106.522 206.435 105.935 208.702 105.428 211.209 C 104.922 213.717 104.388 216.224 104.228 216.811 C 104.068 217.398 103.561 219.025 103.108 220.412 C 102.681 221.799 101.881 223.96 101.374 225.213 C 100.867 226.467 100.014 228.307 99.507 229.348 C 99 230.388 97.986 232.175 97.293 233.349 C 96.573 234.523 95.266 236.443 94.385 237.617 C 93.478 238.79 91.691 240.818 90.411 242.125 C 89.131 243.405 87.263 245.166 86.223 246.019 C 85.183 246.846 83.155 248.34 81.688 249.3 C 80.221 250.26 77.527 251.754 75.687 252.634 C 73.846 253.488 70.912 254.715 69.151 255.302 C 67.391 255.915 65.044 256.662 63.95 256.956 C 62.856 257.249 60.136 257.809 57.948 258.209 C 54.267 258.823 53.2 258.903 35.409 259.09 L 35.115 260.103 C 34.955 260.637 34.768 262.424 34.688 264.024 C 34.608 265.625 34.688 268.532 34.848 270.426 C 35.008 272.32 35.515 275.921 35.942 278.428 C 36.395 280.936 36.742 282.99 36.742 283.043 C 36.742 283.07 36.049 282.75 35.195 282.296 C 34.368 281.869 32.714 280.749 31.541 279.815 C 30.367 278.882 28.767 277.388 27.966 276.535 C 27.166 275.681 26.073 274.294 25.539 273.494 C 24.979 272.693 24.099 271.253 22.578 268.559 L 22.658 270.373 C 22.712 271.36 22.685 272.16 22.605 272.16 C 22.525 272.16 22.018 270.026 21.485 267.412 C 20.924 264.825 20.338 261.784 20.178 260.69 C 19.964 259.356 19.911 255.995 20.017 250.687 C 20.097 246.286 20.284 241.858 20.444 240.818 C 20.604 239.777 20.871 238.31 21.271 236.15 L 22.525 236.656 C 23.245 236.95 25.006 237.643 26.473 238.257 C 27.94 238.844 30.58 239.697 32.341 240.151 C 34.101 240.604 36.849 241.218 38.476 241.485 C 40.877 241.938 42.611 242.018 47.999 242.018 C 54.081 242.018 54.881 241.965 57.868 241.324 C 59.682 240.951 62.35 240.258 63.817 239.777 C 65.284 239.271 67.791 238.23 69.418 237.403 C 71.019 236.603 73.419 235.216 74.753 234.336 C 76.06 233.482 78.301 231.802 79.688 230.628 C 81.075 229.454 83.022 227.614 84.009 226.52 C 84.969 225.427 86.41 223.773 87.157 222.813 C 87.93 221.852 89.424 219.745 90.491 218.145 C 91.558 216.544 93.078 214.01 93.879 212.543 C 94.679 211.076 95.959 208.542 96.706 206.941 C 97.426 205.341 98.52 202.807 99.107 201.34 C 99.694 199.873 100.68 197.179 101.294 195.338 C 101.907 193.498 102.788 190.617 103.268 188.936 C 103.748 187.256 104.201 185.762 104.281 185.602 C 104.362 185.469 105.188 185.042 106.095 184.668 C 107.029 184.295 108.069 183.681 108.416 183.281 C 108.976 182.614 109.03 182.294 108.896 178.16 L 110.096 177.039 C 110.87 176.319 111.644 175.199 112.284 173.839 C 112.844 172.665 113.537 170.771 113.858 169.597 C 114.311 167.917 114.444 166.663 114.471 163.729 C 114.471 161.568 114.338 159.328 114.151 158.394 C 113.964 157.514 113.164 155.487 111.03 151.005 L 111.83 150.365 C 112.257 150.018 113.778 149.352 115.165 148.898 C 116.898 148.338 118.872 147.965 121.433 147.698 C 123.487 147.484 125.461 147.218 125.808 147.111 C 126.394 146.951 126.421 146.818 126.288 145.591 C 126.208 144.87 125.701 142.87 125.167 141.189 C 124.607 139.509 123.807 137.348 123.38 136.388 C 122.953 135.428 122.447 134.121 121.887 132.253 L 123.274 132.067 C 124.02 131.96 125.834 131.853 127.301 131.853 C 128.768 131.853 131.223 131.987 132.77 132.12 C 134.317 132.28 136.957 132.653 138.638 132.947 C 140.318 133.24 143.146 133.827 144.906 134.281 C 146.667 134.707 148.347 135.001 148.641 134.894 C 149.121 134.761 149.068 134.654 148.107 133.667 C 147.52 133.054 148.374 133.747 149.975 135.161 C 151.735 136.735 153.549 138.068 154.509 138.549 C 155.389 138.975 156.937 139.429 157.977 139.589 C 159.284 139.802 160.271 139.776 161.311 139.589 C 162.111 139.429 163.498 139.002 164.379 138.655 C 165.259 138.282 166.619 137.588 167.393 137.108 C 168.193 136.655 169.687 135.454 170.727 134.494 C 171.794 133.534 173.555 131.56 174.675 130.093 C 175.795 128.652 176.836 127.185 176.996 126.865 C 177.182 126.518 177.316 126.065 177.316 125.852 C 177.316 125.638 176.702 124.705 175.955 123.798 C 175.208 122.864 173.368 120.73 171.874 119.05 C 170.354 117.369 168.993 115.742 168.833 115.449 C 168.673 115.155 168.62 114.782 168.727 114.595 C 168.833 114.435 170.78 113.581 173.048 112.701 C 175.315 111.821 179.29 110.38 181.85 109.474 C 184.411 108.567 188.492 107.206 190.92 106.486 C 193.347 105.739 197.855 104.485 200.922 103.685 C 203.99 102.912 208.631 101.845 211.192 101.338 C 213.753 100.804 217.834 100.084 220.261 99.737 C 222.689 99.364 226.53 98.911 228.797 98.724 C 231.064 98.537 236.666 98.377 241.201 98.377 C 248.669 98.377 249.843 98.43 256.938 99.631 L 260.006 99.071 C 261.686 98.75 264.274 98.377 265.741 98.244 C 267.208 98.11 271.342 98.057 274.943 98.137 L 274.943 98.137 Z  M 94.012 117.316 C 94.065 117.769 94.065 118.596 94.012 119.183 C 93.959 119.77 93.905 119.423 93.905 118.383 C 93.905 117.369 93.959 116.889 94.012 117.316 Z  M 257.072 299.955 C 257.579 299.928 259.739 300.088 261.873 300.301 C 264.007 300.515 266.461 300.835 267.341 300.995 C 268.222 301.128 270.302 301.608 271.929 302.062 C 273.583 302.489 276.171 303.315 277.664 303.929 C 279.185 304.543 280.972 305.316 281.665 305.663 C 282.386 306.01 283.026 306.463 283.106 306.623 C 283.213 306.836 281.932 308.304 279.718 310.438 C 277.478 312.625 275.21 315.159 273.61 317.293 C 272.223 319.133 270.302 321.907 269.369 323.428 C 268.408 324.922 266.701 327.963 265.581 330.176 C 264.434 332.364 262.887 335.618 262.14 337.379 C 261.393 339.139 260.033 342.713 259.126 345.327 C 258.219 347.942 257.418 350.075 257.338 350.049 C 257.258 350.049 256.618 348.288 255.871 346.128 C 255.151 343.94 253.871 340.499 253.044 338.446 C 252.217 336.392 250.883 333.324 250.056 331.644 C 249.256 329.963 247.549 326.842 246.269 324.708 C 244.988 322.574 243.094 319.64 242.027 318.173 C 240.987 316.706 239.173 314.492 238 313.238 C 236.826 312.011 234.905 309.984 233.732 308.784 C 232.558 307.557 231.651 306.516 231.731 306.463 C 231.811 306.383 232.905 305.85 234.185 305.263 C 235.492 304.649 237.893 303.716 239.52 303.129 C 241.174 302.569 243.601 301.848 244.935 301.555 C 246.269 301.235 248.723 300.808 250.403 300.595 C 252.084 300.355 254.058 300.141 254.804 300.088 C 255.525 300.035 256.565 299.981 257.072 299.955 L 257.072 299.955 Z  M 24.179 316.839 L 28.393 318.893 C 30.714 320.04 34.395 321.561 36.609 322.281 C 38.796 323.028 41.704 323.881 43.011 324.175 C 44.318 324.468 46.638 324.815 48.159 324.922 C 50.853 325.108 50.906 325.108 51.093 324.495 C 51.2 324.175 51.36 323.935 51.44 323.961 C 51.546 324.015 52.56 325.242 53.734 326.709 C 54.907 328.176 57.121 330.763 58.668 332.444 C 60.216 334.124 63.39 337.379 65.71 339.646 C 68.058 341.94 71.579 345.167 73.553 346.875 C 75.527 348.555 78.247 350.796 79.554 351.809 C 80.861 352.85 83.209 354.583 84.756 355.677 C 86.303 356.797 88.65 358.425 89.957 359.305 C 91.264 360.185 93.852 361.812 95.692 362.906 C 97.533 364.026 100.894 365.893 103.161 367.067 C 105.428 368.241 108.976 369.974 111.03 370.881 C 113.084 371.788 116.152 373.042 117.832 373.709 C 119.513 374.349 122.82 375.496 125.167 376.216 C 127.515 376.963 131.062 377.95 133.036 378.457 C 135.01 378.937 137.651 379.551 138.905 379.817 C 140.158 380.057 141.545 380.191 141.972 380.084 C 142.719 379.924 142.746 379.871 142.346 379.444 C 142.106 379.204 141.812 378.804 141.706 378.59 C 141.519 378.27 141.572 378.244 141.866 378.537 C 142.079 378.724 142.452 378.857 142.692 378.857 C 143.013 378.857 143.173 379.07 143.173 379.444 C 143.199 379.844 142.746 380.484 141.972 381.178 C 141.305 381.818 140.078 382.778 139.225 383.312 C 138.398 383.845 136.984 384.619 136.104 385.019 C 135.224 385.419 133.783 385.926 132.903 386.166 C 132.023 386.379 130.476 386.673 127.568 387.019 L 128.768 387.633 C 129.435 387.98 131.116 388.673 132.503 389.207 C 133.89 389.713 136.291 390.54 137.838 391.02 C 139.385 391.527 142.559 392.408 144.906 393.021 C 147.254 393.608 151.041 394.435 153.309 394.862 C 155.576 395.288 159.604 395.875 162.245 396.195 C 165.499 396.595 169.447 396.835 181.957 397.129 L 182.41 400.73 C 182.651 402.704 183.184 405.771 183.584 407.532 C 183.984 409.292 184.838 412.333 185.478 414.254 C 186.118 416.201 187.372 419.402 188.252 421.322 C 189.132 423.27 189.853 425.03 189.853 425.19 C 189.853 425.377 189.639 425.59 189.372 425.644 C 189.132 425.724 188.305 425.83 187.585 425.91 C 186.838 425.99 183.851 426.257 180.917 426.497 C 177.636 426.764 172.461 426.924 167.446 426.924 C 162.965 426.924 157.63 426.791 155.576 426.631 C 153.522 426.471 150.028 426.07 147.841 425.777 C 145.627 425.484 142.212 424.897 140.238 424.497 C 138.265 424.07 135.624 423.456 134.37 423.11 C 133.116 422.763 131.943 422.336 131.756 422.149 C 131.596 421.963 131.436 421.669 131.436 421.536 C 131.436 421.402 131.756 421.189 132.156 421.109 C 132.583 421.029 134.05 420.602 135.437 420.202 C 136.824 419.802 138.691 419.162 139.572 418.788 C 140.452 418.415 141.839 417.748 142.639 417.268 C 143.439 416.788 145.12 415.694 146.373 414.867 C 147.627 414.014 149.281 412.707 150.028 411.96 C 150.801 411.213 151.442 410.466 151.442 410.333 C 151.442 410.199 151.041 410.013 150.561 409.959 C 150.108 409.879 148.374 409.692 146.774 409.532 C 145.173 409.372 142.506 408.999 140.905 408.732 C 139.305 408.465 136.771 407.985 135.304 407.665 C 133.837 407.372 131.249 406.758 129.569 406.305 C 127.888 405.851 124.767 404.944 122.633 404.278 C 120.499 403.611 116.738 402.33 114.231 401.397 C 111.724 400.463 107.776 398.836 105.428 397.796 C 103.081 396.755 99.427 394.995 97.293 393.901 C 95.159 392.781 91.985 391.02 90.224 389.98 C 88.464 388.967 85.343 386.993 83.289 385.659 C 81.235 384.299 77.741 381.845 75.553 380.191 C 73.339 378.537 70.165 376.003 68.485 374.589 C 66.804 373.175 63.737 370.455 61.683 368.534 C 59.629 366.64 56.455 363.466 54.614 361.492 C 52.773 359.518 49.919 356.291 48.266 354.317 C 46.585 352.343 43.864 348.902 42.237 346.715 C 40.583 344.501 38.023 340.9 36.556 338.712 C 35.088 336.498 33.061 333.324 32.021 331.644 C 31.007 329.963 28.873 326.309 27.326 323.508 C 25.779 320.707 24.419 318.066 24.339 317.64 L 24.179 316.839 Z  M 489.671 316.733 C 489.751 316.706 489.645 317.159 489.431 317.693 C 489.245 318.253 487.804 320.974 486.257 323.775 C 484.71 326.575 482.603 330.23 481.589 331.91 C 480.549 333.591 478.628 336.605 477.295 338.579 C 475.961 340.553 473.293 344.287 471.4 346.848 C 469.479 349.409 466.465 353.196 464.704 355.25 C 462.944 357.304 460.25 360.318 458.703 361.972 C 457.182 363.599 454.061 366.667 451.767 368.774 C 449.5 370.881 446.619 373.442 445.365 374.509 C 444.138 375.576 441.818 377.47 440.191 378.724 C 438.59 379.977 435.629 382.138 433.655 383.498 C 431.682 384.885 428.614 386.913 426.853 388.006 C 425.093 389.073 421.732 391.047 419.385 392.328 C 417.037 393.635 413.196 395.582 410.849 396.675 C 408.502 397.742 404.66 399.396 402.313 400.33 C 399.966 401.237 395.831 402.731 393.111 403.637 C 390.39 404.518 387.029 405.558 385.642 405.931 C 384.255 406.332 381.614 406.998 379.773 407.398 C 377.933 407.825 374.999 408.412 373.238 408.706 C 371.478 408.999 368.837 409.372 367.37 409.532 C 365.903 409.692 364.196 409.879 363.582 409.933 C 362.942 410.013 362.435 410.146 362.435 410.253 C 362.435 410.386 362.702 410.813 363.022 411.24 C 363.369 411.666 364.889 412.973 366.436 414.12 C 368.037 415.321 370.651 416.921 372.571 417.881 C 374.439 418.815 377.079 419.882 378.573 420.309 C 380.04 420.736 381.507 421.189 381.854 421.376 C 382.174 421.536 382.441 421.749 382.441 421.856 C 382.441 421.989 381.801 422.309 381.054 422.576 C 380.28 422.843 377.426 423.563 374.705 424.177 C 371.984 424.763 368.143 425.484 366.169 425.777 C 364.196 426.07 360.781 426.444 358.567 426.631 C 356.38 426.791 351.392 426.951 347.498 426.951 C 343.603 426.951 337.441 426.764 333.76 426.524 C 330.106 426.284 326.398 426.017 325.571 425.937 C 324.238 425.83 324.024 425.724 324.024 425.27 C 324.024 424.977 324.691 423.243 325.491 421.402 C 326.291 419.562 327.438 416.654 328.052 414.921 C 328.639 413.213 329.466 410.413 329.892 408.732 C 330.319 407.052 330.826 404.518 331.066 403.131 C 331.306 401.744 331.573 399.796 331.893 396.996 L 337.495 396.996 C 340.589 396.996 344.537 396.862 346.297 396.729 C 348.058 396.569 350.938 396.275 352.699 396.062 C 354.459 395.822 357.634 395.342 359.768 394.968 C 361.902 394.595 365.796 393.741 368.437 393.074 C 371.078 392.408 375.345 391.181 377.906 390.327 C 380.467 389.473 383.428 388.406 386.309 387.046 L 383.641 386.699 C 382.174 386.513 380.307 386.112 379.507 385.819 C 378.706 385.526 377.079 384.752 375.906 384.112 C 374.732 383.445 373.131 382.325 372.331 381.631 C 371.558 380.911 370.784 380.084 370.651 379.791 C 370.437 379.364 370.491 379.204 370.864 378.99 C 371.158 378.857 371.638 378.644 371.984 378.51 C 372.331 378.404 372.571 378.43 372.571 378.59 C 372.571 378.724 372.891 378.91 373.318 378.964 C 373.718 379.017 376.386 378.43 379.24 377.657 C 382.094 376.883 386.602 375.523 389.243 374.642 C 391.883 373.762 395.965 372.242 398.312 371.282 C 400.659 370.295 404.981 368.321 407.915 366.854 C 410.849 365.387 415.223 363.013 417.651 361.572 C 420.078 360.132 423.679 357.864 425.653 356.531 C 427.627 355.224 430.988 352.823 433.122 351.222 C 435.256 349.622 438.083 347.408 439.39 346.314 C 440.724 345.221 443.605 342.687 445.792 340.686 C 448.006 338.686 451.234 335.565 453.021 333.751 C 454.781 331.937 457.396 329.056 458.836 327.376 C 460.276 325.695 461.557 324.281 461.69 324.228 C 461.823 324.201 461.93 324.388 461.93 324.628 C 461.93 325.082 462.197 325.082 465.184 324.922 C 466.998 324.815 469.559 324.495 470.866 324.201 C 472.2 323.935 474.6 323.241 476.201 322.708 C 477.828 322.148 480.575 321.081 482.336 320.334 C 484.096 319.56 486.444 318.44 487.537 317.853 C 488.631 317.239 489.591 316.733 489.671 316.733 L 489.671 316.733 Z  M 98.44 346.048 C 98.547 346.048 99.64 347.061 100.841 348.315 C 102.041 349.569 102.974 350.582 102.894 350.582 C 102.814 350.582 101.747 349.569 100.494 348.315 C 99.24 347.061 98.333 346.048 98.44 346.048 Z  M 307.94 363.759 C 308.286 363.999 308.793 364.133 309.087 364.053 C 309.54 363.946 309.593 364.026 309.46 364.64 C 309.353 365.066 309.14 365.467 308.98 365.573 C 308.82 365.68 308.446 365.787 308.153 365.787 C 307.78 365.787 307.566 365.547 307.406 364.933 C 307.299 364.453 307.246 363.893 307.273 363.679 C 307.326 363.386 307.459 363.413 307.94 363.759 L 307.94 363.759 Z " fill-rule="evenodd" fill="rgb(194,194,206)"/><path d=" M 251.737 377.123 C 250.643 377.31 248.723 377.843 247.469 378.297 C 246.215 378.75 244.135 379.817 242.801 380.671 C 241.467 381.551 239.76 382.965 238.987 383.818 C 238.213 384.672 237.253 386.059 236.799 386.859 C 236.372 387.66 235.839 389.18 235.599 390.194 C 235.306 391.394 235.199 392.594 235.306 393.528 C 235.386 394.328 235.706 395.769 236.052 396.729 C 236.453 397.929 237.493 399.636 239.413 402.33 C 240.934 404.464 242.881 406.892 243.708 407.772 C 244.535 408.626 246.109 410.013 247.202 410.839 C 248.296 411.666 250.11 412.84 251.203 413.454 C 252.297 414.04 254.084 414.867 255.151 415.241 C 256.191 415.614 257.552 415.934 258.139 415.934 C 258.806 415.934 259.846 415.614 260.886 415.107 C 261.793 414.654 263.554 413.587 264.807 412.76 C 266.034 411.933 268.088 410.306 269.315 409.132 C 270.542 407.959 272.703 405.585 274.117 403.851 C 275.53 402.117 277.131 400.01 277.691 399.183 C 278.251 398.356 278.891 396.996 279.131 396.195 C 279.398 395.368 279.585 393.795 279.585 392.594 C 279.585 391.234 279.425 389.927 279.105 388.993 C 278.838 388.193 278.224 386.859 277.744 386.059 C 277.264 385.259 276.09 383.872 275.157 382.965 C 274.25 382.085 272.65 380.858 271.609 380.244 C 270.569 379.631 269.075 378.884 268.275 378.564 C 267.475 378.244 265.981 377.763 264.941 377.47 C 263.5 377.07 261.98 376.91 258.405 376.83 C 255.125 376.776 253.151 376.856 251.737 377.123 L 251.737 377.123 Z " fill="rgb(23,23,48)"/><path d=" M 256.672 376.643 C 257.258 376.696 258.272 376.696 258.939 376.643 C 259.606 376.59 259.126 376.536 257.872 376.536 C 256.618 376.536 256.085 376.59 256.672 376.643 Z  M 253.471 382.698 C 252.43 382.885 250.937 383.365 250.136 383.738 C 249.336 384.112 248.269 384.832 247.789 385.366 C 247.042 386.192 246.936 386.513 246.936 387.793 C 246.936 389.02 247.069 389.393 247.682 390.087 C 248.082 390.54 249.123 391.261 250.003 391.687 C 250.883 392.114 252.43 392.648 253.471 392.861 C 254.511 393.074 256.271 393.261 257.418 393.261 C 258.539 393.261 260.406 393.074 261.553 392.834 C 262.673 392.594 264.14 392.114 264.807 391.767 C 265.474 391.421 266.248 390.94 266.541 390.674 C 266.835 390.407 267.341 389.847 267.688 389.393 C 268.008 388.94 268.302 388.273 268.275 387.846 C 268.275 387.446 268.115 386.806 267.901 386.379 C 267.715 385.979 267.128 385.286 266.648 384.859 C 266.114 384.379 264.834 383.738 263.474 383.285 C 261.66 382.671 260.619 382.511 258.272 382.431 C 256.538 382.378 254.591 382.485 253.471 382.698 Z " fill="rgb(193,193,205)"/>
  </g>
</svg>