<?xml version="1.0" encoding="UTF-8" standalone="no"?>
<!-- Created with Inkscape (http://www.inkscape.org/) -->

<svg
   width="512"
   height="512"
   viewBox="0 0 135.46666 135.46666"
   version="1.1"
   id="svg5"
   xml:space="preserve"
   xmlns="http://www.w3.org/2000/svg"
   xmlns:svg="http://www.w3.org/2000/svg"><defs
     id="defs2" /><path
     d="m 97.407359,62.977871 2.189615,-2.176327 -6.568851,-6.528982 -12.033197,-11.96017 -6.568846,-6.528982 -2.189616,2.176328 -4.379231,4.352654 -38.599239,38.36499 c -2.015222,2.002992 -3.487883,4.487471 -4.301722,7.203065 l -6.859504,23.188483 c -0.484428,1.6178 -0.03875,3.37042 1.182005,4.56451 1.220759,1.19409 2.964701,1.63705 4.592379,1.17483 l 23.310685,-6.81787 c 2.732176,-0.8089 5.231825,-2.27263 7.247046,-4.27562 L 93.028123,67.349785 Z M 48.906401,95.41093 47.143083,99.782843 c -0.775085,0.597047 -1.647056,1.040017 -2.577158,1.328907 l -15.152914,4.42969 4.45674,-15.041697 c 0.271279,-0.943717 0.73633,-1.810396 1.337021,-2.561517 l 4.398608,-1.752618 v 6.163052 c 0,1.694844 1.395154,3.08153 3.100341,3.08153 h 6.20068 z m 39.277439,-73.321047 -2.790307,2.792632 -4.37923,4.352654 -2.208992,2.176328 6.568846,6.528981 12.033202,11.960171 6.568841,6.528981 2.18962,-2.176327 4.37923,-4.352654 2.80968,-2.792633 c 4.84429,-4.814884 4.84429,-12.614994 0,-17.429877 l -7.61521,-7.588256 c -4.84428,-4.814883 -12.692018,-4.814883 -17.536302,0 z M 78.999082,54.445898 51.096017,82.179625 c -1.201382,1.194092 -3.177849,1.194092 -4.379231,0 -1.201382,-1.194091 -1.201382,-3.158563 0,-4.352654 L 74.619851,50.093244 c 1.201381,-1.194092 3.177848,-1.194092 4.379231,0 1.201381,1.19409 1.201381,3.158563 0,4.352654 z"
     id="path1"
     style="fill:#3b82f6;fill-opacity:1;stroke-width:0.193182" /></svg>
