<?xml version="1.0" encoding="UTF-8" standalone="no"?>
<!-- Created with Inkscape (http://www.inkscape.org/) -->

<svg
   width="512"
   height="512"
   viewBox="0 0 135.46666 135.46666"
   version="1.1"
   id="svg5"
   xml:space="preserve"
   xmlns="http://www.w3.org/2000/svg"
   xmlns:svg="http://www.w3.org/2000/svg"><defs
     id="defs2" /><path
     d="m 102.68188,19.798033 c 1.71342,1.31932 2.74561,3.45222 2.74561,5.717053 v 21.109123 h 3.30298 c 3.65394,0 6.60598,3.14438 6.60598,7.036374 0,3.891994 -2.95204,7.036375 -6.60598,7.036375 H 98.821511 88.91255 c -3.653926,0 -6.60597,-3.144381 -6.60597,-7.036375 0,-3.891994 2.952044,-7.036374 6.60597,-7.036374 h 3.302992 V 35.278056 l -1.217975,0.439774 c -3.468139,1.231364 -7.204643,-0.769604 -8.360689,-4.441712 -1.156045,-3.672108 0.722529,-7.674045 4.170022,-8.905411 l 9.908957,-3.518187 c 2.023082,-0.725626 4.231953,-0.351819 5.945373,0.967502 z m -1.03218,71.88096 c 3.30118,-1.663412 4.71109,-5.862551 3.14897,-9.378581 -1.56211,-3.516031 -5.50459,-5.017233 -8.805341,-3.352859 -3.301178,1.663412 -4.711087,5.862551 -3.148972,9.378581 1.562115,3.516031 5.504592,5.017233 8.805343,3.352859 z m -8.40198,12.071777 c -7.307855,-2.50671 -12.592634,-9.806945 -12.592634,-18.426503 0,-10.686494 8.13361,-19.350029 18.166425,-19.350029 10.032819,0 18.166439,8.663535 18.166439,19.350029 0,5.167337 -1.54828,10.180749 -4.43839,14.336612 l -10.07412,14.468541 c -2.16758,3.12239 -6.316959,3.78205 -9.248357,1.47324 -2.931406,-2.30881 -3.550716,-6.72853 -1.383127,-9.85092 l 1.403764,-2.02296 z"
     id="path1"
     style="fill:#3b82f6;fill-opacity:1;stroke-width:0.213055" /><path
     d="m 48.719329,19.951953 c 1.71342,1.31932 2.74561,3.45222 2.74561,5.717053 v 21.109123 h 3.30298 c 3.65394,0 6.60598,3.14438 6.60598,7.036374 0,3.891994 -2.95204,7.036375 -6.60598,7.036375 h -9.90896 -9.90896 c -3.65392,0 -6.60597,-3.144381 -6.60597,-7.036375 0,-3.891993 2.95205,-7.036374 6.60597,-7.036374 h 3.30299 V 35.431976 l -1.21797,0.439774 c -3.46814,1.231364 -7.20464,-0.769604 -8.36069,-4.441712 -1.15605,-3.672108 0.72253,-7.674045 4.17002,-8.905411 l 9.90896,-3.518187 c 2.02308,-0.725626 4.23195,-0.351819 5.94537,0.967502 z m -1.03218,71.880965 c 3.30118,-1.66342 4.71109,-5.86255 3.14897,-9.37858 -1.56211,-3.51604 -5.50459,-5.017238 -8.80534,-3.35286 -3.30118,1.663409 -4.71109,5.862549 -3.14897,9.378579 1.56211,3.516031 5.50459,5.01723 8.80534,3.352861 z m -8.40198,12.071762 c -7.30785,-2.50671 -12.59263,-9.806933 -12.59263,-18.426492 0,-10.686494 8.13361,-19.350029 18.16642,-19.350029 10.03282,0 18.16644,8.663535 18.16644,19.350029 0,5.16734 -1.54828,10.180746 -4.43839,14.336606 l -10.07412,14.468536 c -2.16758,3.12239 -6.31696,3.78205 -9.24835,1.47324 -2.93141,-2.30881 -3.55072,-6.72853 -1.38313,-9.85092 l 1.40376,-2.02296 z"
     id="path1-8"
     style="fill:#3b82f6;fill-opacity:1;stroke-width:0.213055" /></svg>
